<?xml version="1.0" encoding="UTF-8"?>
<svg id="Ebene_1" xmlns="http://www.w3.org/2000/svg" xmlns:xlink="http://www.w3.org/1999/xlink" version="1.1" viewBox="0 0 187.1 187.1">
  <!-- Generator: Adobe Illustrator 29.7.0, SVG Export Plug-In . SVG Version: 2.1.1 Build 138)  -->
  <defs>
    <style>
      .st0 {
        fill: none;
      }

      .st1 {
        fill: #00114a;
      }

      .st2 {
        fill: #fff;
      }

      .st3 {
        fill: #0a5544;
      }

      .st4 {
        fill: #e20074;
      }

      .st5 {
        clip-path: url(#clippath);
      }
    </style>
    <clipPath id="clippath">
      <rect class="st0" x="17.6" y="9.5" width="152" height="81"/>
    </clipPath>
  </defs>
  <rect class="st2" x="0" width="187.1" height="187.1"/>
  <rect class="st3" x="0" y="96.6" width="90.5" height="90.5"/>
  <rect class="st4" x="0" width="187.1" height="90.5"/>
  <rect class="st1" x="96.6" y="96.6" width="90.5" height="90.5"/>
  <g class="st5">
    <path class="st2" d="M28.2,54.7h-5.9v-5.9h5.9v5.9h0ZM22.3,35.2v10.1h1.8v-.3c0-4.7,2.7-7.7,7.7-7.7h.3v21.3c0,3-1.2,4.1-4.1,4.1h-.9v2.1h15.4v-2.1h-.9c-3,0-4.1-1.2-4.1-4.1v-21.3h.3c5,0,7.7,3,7.7,7.7v.3h1.8v-10h-24.8ZM41.2,54.7h5.9v-5.9h-5.9v5.9Z"/>
    <path class="st2" d="M158.8,54.2v10.6h2.6v-10.6h3.3v-2.4h-9.3v2.4h3.3ZM150.9,55.5h.1l1.4,4.2h-2.9l1.4-4.2ZM156.8,64.8l-4.4-13h-2.6l-4.4,13h2.7l.8-2.5h4.5l.8,2.5h2.7ZM139.4,54.2c.9,0,1.6.6,1.7,1.4,0,0,0,.2,0,.3,0,1.1-.7,1.7-1.7,1.7h-2.1v-3.4h2.1ZM141.3,59.7c1.6-.5,2.6-1.9,2.6-3.9s-1.8-4.1-4.3-4.1h-4.8v13h2.6v-4.8h1.3l2.5,4.8h2.9l-2.7-5h0ZM128.7,65.1c2.4,0,4.4-1.5,4.4-4.1s-1.2-3.3-3.1-3.8l-1.5-.4c-.7-.2-1.3-.5-1.3-1.4s.7-1.4,1.6-1.4,1.6.5,1.7,1.5h2.6c-.3-2.4-1.7-3.9-4.3-3.9s-4.3,1.6-4.3,4.1.8,3.1,2.9,3.7l1.5.4c1,.3,1.6.7,1.6,1.5s-.6,1.5-1.7,1.5-1.7-.4-1.9-1.5h-2.6c.2,2.6,1.8,4,4.5,4M116.9,62.4v-3.1h1.9c1,0,1.6.6,1.6,1.5,0,.8-.5,1.5-1.3,1.6,0,0-.2,0-.3,0h-1.9ZM118.8,54.1c.8,0,1.4.6,1.4,1.3,0,0,0,.1,0,.2,0,.9-.5,1.5-1.4,1.5h-2v-3h2ZM121.4,58.2c1-.6,1.6-1.8,1.6-3,0-1.9-1.1-3.4-3.8-3.4h-4.9v13h4.8c2.8,0,4-1.6,4-3.6s-.6-2.4-1.7-2.9h0c0,0,0,0,0,0ZM104.6,51.8v13h7.7v-2.4h-5v-3h4.8v-2.4h-4.8v-2.7h5v-2.4h-7.6ZM102.8,51.8h-2.6v13h2.6v-13ZM93.6,54.2c.9,0,1.6.6,1.7,1.4,0,0,0,.2,0,.3,0,1.1-.7,1.7-1.7,1.7h-2.1v-3.4h2.1ZM95.4,59.7c1.6-.5,2.6-1.9,2.6-3.9s-1.8-4.1-4.3-4.1h-4.8v13h2.6v-4.8h1.3l2.5,4.8h2.9l-2.7-5h0ZM81.6,54.2v10.6h2.6v-10.6h3.3v-2.4h-9.3v2.4h3.3ZM69.2,51.8v13h7.7v-2.4h-5v-3h4.8v-2.4h-4.8v-2.7h5v-2.4h-7.7ZM61.6,62.4v-3.1h1.9c1,0,1.6.6,1.6,1.5,0,.8-.5,1.5-1.3,1.6,0,0-.2,0-.3,0h-1.9ZM63.6,54.1c.8,0,1.4.6,1.4,1.3,0,0,0,.1,0,.2,0,.9-.5,1.5-1.4,1.5h-2v-3h2ZM66.1,58.2c1-.6,1.6-1.8,1.6-3,0-1.9-1.1-3.4-3.8-3.4h-4.9v13h4.8c2.8,0,4-1.6,4-3.6s-.6-2.4-1.7-2.9h0c0,0,0,0,0,0Z"/>
    <path class="st2" d="M131.7,45.8h-.1l-6.4-10.6h-1.4v13.2h1.3v-10.6h.1l6.4,10.6h1.4v-13.2h-1.3v10.6ZM117,36.5c1.4,0,2.7.7,2.7,2.6s-1.3,2.6-2.7,2.6h-2.9v-5.2h2.9ZM117.8,42.9c1.9-.3,3.3-1.5,3.3-3.8s-1.9-3.9-4.1-3.9h-4.3v13.2h1.3v-5.4h2.3l3.3,5.4h1.6l-3.4-5.4ZM103,35.2v13.2h7.2v-1.3h-5.8v-4.8h5.6v-1.3h-5.6v-4.5h5.8v-1.3h-7.2ZM94.1,47l6.3-10.2v-1.6h-7.4v1.3h6c0,.1-6.3,10.3-6.3,10.3v1.6h7.8v-1.3h-6.4c0-.1,0-.1,0-.1ZM88.8,45.8h-.1l-6.4-10.6h-1.4v13.2h1.3v-10.6h.1l6.4,10.6h1.4v-13.2h-1.3v10.6h0ZM73.6,47.3c-2.5,0-3.9-2-3.9-5.5s1.4-5.5,3.9-5.5,3.9,2,3.9,5.5-1.4,5.5-3.9,5.5M73.6,48.6c3.4,0,5.3-2.6,5.3-6.8s-1.9-6.8-5.3-6.8-5.3,2.6-5.3,6.8,1.9,6.8,5.3,6.8M65.9,48.4h1.6l-5.1-7.4,5-5.7h-1.8l-5.3,6.2h-.1v-6.2h-1.3v13.2h1.3v-4.8l1.3-1.5h.1l4.3,6.3h0Z"/>
  </g>
</svg>